<svg width="20.000000" height="17.555664" viewBox="0 0 20 17.5557" fill="none" xmlns="http://www.w3.org/2000/svg" xmlns:xlink="http://www.w3.org/1999/xlink">
	<desc>
			Created with Pixso.
	</desc>
	<defs/>
	<path id="Vector" d="M19.99 4.55C19.98 4.53 19.96 4.51 19.94 4.49L19.67 4.36L18.9 3.98C18.88 3.97 18.85 3.97 18.83 3.98C18.81 3.99 18.79 4 18.78 4.03L18.09 5.42C17.73 4.53 17.22 3.72 16.59 3C15.82 2.11 14.89 1.4 13.83 0.88C12.77 0.37 11.63 0.07 10.46 0.01C10.3 0 10.14 0 9.98 0C9.01 0 8.05 0.16 7.12 0.47C6.05 0.85 5.07 1.41 4.21 2.16C3.33 2.93 2.61 3.86 2.09 4.93C1.77 5.59 1.53 6.29 1.38 7.01C1.38 7.03 1.38 7.06 1.4 7.08C1.41 7.1 1.43 7.11 1.46 7.12L2.59 7.35C2.64 7.36 2.69 7.33 2.7 7.28C2.83 6.67 3.03 6.08 3.31 5.52C4.18 3.73 5.69 2.4 7.56 1.75C8.35 1.48 9.17 1.34 9.99 1.34C11.12 1.34 12.21 1.59 13.24 2.1C14.88 2.9 16.16 4.26 16.85 5.94L15.34 5.21C15.29 5.19 15.23 5.21 15.21 5.25L14.71 6.3C14.68 6.34 14.7 6.4 14.75 6.42L18.18 8.08C18.19 8.08 18.2 8.08 18.22 8.08C18.25 8.08 18.29 8.07 18.3 8.03L19.67 5.26L19.98 4.62C20 4.6 20 4.57 19.99 4.55ZM18.51 10.41L17.38 10.18C17.35 10.17 17.33 10.18 17.3 10.19C17.28 10.21 17.27 10.23 17.26 10.25C17.15 10.8 16.98 11.33 16.75 11.84C16.72 11.91 16.69 11.97 16.66 12.03C15.79 13.81 14.28 15.15 12.4 15.8C11.61 16.07 10.8 16.2 9.98 16.2C8.85 16.2 7.75 15.95 6.73 15.45C5.06 14.64 3.78 13.26 3.1 11.57L4.65 12.32C4.67 12.34 4.7 12.34 4.72 12.33C4.75 12.32 4.77 12.3 4.78 12.28L5.29 11.24C5.31 11.19 5.29 11.14 5.24 11.11L1.81 9.44C1.77 9.42 1.71 9.44 1.69 9.48L0.36 12.19C0.36 12.19 0.36 12.2 0.35 12.2L0.32 12.27L0 12.92C-0.02 12.96 0 13.02 0.05 13.04L0.32 13.18L1.09 13.55C1.11 13.56 1.14 13.57 1.16 13.56C1.18 13.55 1.2 13.53 1.21 13.51L1.88 12.15C2.17 12.83 2.53 13.47 2.97 14.05C3.81 15.17 4.87 16.04 6.14 16.66C7.2 17.18 8.33 17.47 9.51 17.54C9.67 17.55 9.83 17.55 9.98 17.55C10.95 17.55 11.91 17.39 12.84 17.07C13.92 16.7 14.9 16.13 15.75 15.39C16.64 14.62 17.35 13.68 17.87 12.62C17.91 12.55 17.94 12.48 17.97 12.4C18.25 11.8 18.45 11.17 18.58 10.52C18.6 10.47 18.56 10.42 18.51 10.41Z" fill="#FFFFFF" fill-opacity="1.000000" fill-rule="evenodd"/>
</svg>
